<?xml version="1.0" standalone="no"?>
<!DOCTYPE svg PUBLIC "-//W3C//DTD SVG 20010904//EN"
 "http://www.w3.org/TR/2001/REC-SVG-20010904/DTD/svg10.dtd">
<svg version="1.0" xmlns="http://www.w3.org/2000/svg"
 width="489.000000pt" height="489.000000pt" viewBox="0 0 489.000000 489.000000"
 preserveAspectRatio="xMidYMid meet">
<metadata>
Created by potrace 1.14, written by Peter Selinger 2001-2017
</metadata>
<g transform="translate(0.000000,489.000000) scale(0.100000,-0.100000)"
fill="#000000" stroke="none">
<path d="M1530 4478 c-137 -205 -212 -410 -236 -646 -9 -90 -10 -275 -2 -355
8 -79 38 -149 71 -164 28 -13 97 -8 142 12 19 7 35 12 35 9 0 -17 -60 -79
-160 -166 -63 -56 -142 -124 -175 -153 -33 -29 -85 -74 -115 -101 -30 -26 -60
-53 -66 -58 -6 -6 -50 -44 -98 -85 -47 -40 -86 -77 -86 -82 0 -5 -6 -9 -12 -9
-7 0 -36 -22 -64 -48 -28 -26 -130 -116 -227 -201 -97 -85 -177 -158 -177
-163 0 -4 -6 -8 -14 -8 -21 0 -84 -91 -94 -136 -12 -54 -5 -100 24 -159 33
-66 91 -145 107 -145 7 0 67 74 133 165 65 90 121 160 123 154 7 -21 -54 -170
-129 -314 -156 -299 -144 -372 85 -545 33 -25 63 -49 66 -54 11 -14 26 1 57
57 16 28 77 135 134 237 58 102 116 205 130 230 23 40 69 120 74 128 3 5 54
-21 54 -27 0 -8 -151 -455 -209 -621 -66 -189 -55 -291 40 -380 38 -35 156
-90 194 -90 18 0 18 2 129 445 52 209 98 389 101 400 2 11 36 148 75 305 39
157 73 291 76 299 3 11 20 0 57 -35 69 -66 76 -71 118 -79 45 -8 82 20 141
109 42 64 87 116 98 116 4 0 -4 -60 -17 -132 -12 -73 -22 -137 -20 -142 3 -10
800 -11 852 -1 101 20 116 45 126 215 6 117 23 194 41 188 4 -2 45 -59 90
-128 135 -202 167 -214 382 -140 88 30 121 38 127 29 4 -7 15 -55 24 -108 9
-53 18 -105 20 -116 2 -11 9 -45 15 -75 6 -30 13 -68 16 -85 2 -16 12 -66 20
-110 8 -44 19 -104 25 -132 19 -110 29 -163 59 -323 17 -91 33 -181 36 -200 3
-19 16 -89 29 -155 13 -66 31 -166 41 -222 10 -57 23 -103 27 -103 5 0 41 17
79 37 94 49 187 142 211 208 29 83 17 212 -28 309 -8 17 -39 96 -70 175 -43
111 -53 146 -43 153 7 4 17 6 22 5 7 -3 207 -322 223 -357 4 -8 17 -32 30 -53
l24 -38 30 19 c49 31 129 113 150 154 49 96 26 176 -152 538 -47 95 -54 116
-42 124 19 10 12 18 129 -149 54 -77 101 -141 106 -143 4 -2 8 -7 8 -12 0 -13
83 -130 92 -130 11 0 63 94 99 179 37 89 45 174 22 241 -14 42 -63 123 -88
145 -6 6 -29 33 -50 60 -22 28 -42 52 -46 55 -3 3 -10 12 -15 21 -5 9 -23 34
-41 55 -51 63 -117 145 -159 200 -51 66 -148 187 -177 218 -12 14 -38 44 -57
67 -198 236 -411 433 -634 587 -53 37 -83 64 -75 66 8 3 55 13 104 22 133 24
138 28 174 153 78 272 82 535 10 767 -40 129 -74 174 -132 174 -40 0 -76 -21
-307 -180 -266 -181 -355 -235 -448 -267 -69 -24 -92 -27 -212 -27 -118 0
-143 3 -200 23 -126 47 -208 99 -329 213 -66 62 -181 166 -231 208 -42 35 -62
53 -129 113 -35 31 -67 57 -72 57 -4 0 -35 -41 -69 -92z"/>
<path d="M2989 2063 c-4 -108 -67 -161 -194 -165 -63 -2 -231 6 -360 17 -77 6
-172 14 -260 20 -44 3 -93 8 -110 10 -16 2 -75 7 -130 10 -55 4 -107 8 -117
10 -9 2 -68 7 -131 11 l-114 6 -41 -93 c-98 -226 -119 -399 -72 -582 41 -162
151 -321 308 -445 47 -37 56 -40 80 -31 39 15 214 79 217 79 1 0 2 -6 2 -12 0
-20 13 -188 18 -233 2 -22 7 -78 10 -125 4 -47 7 -86 8 -87 1 -1 33 26 71 60
60 53 70 59 80 45 6 -9 27 -42 46 -73 63 -102 97 -104 172 -12 l45 55 69 -99
c38 -54 72 -99 76 -99 3 0 29 31 57 70 28 38 54 70 57 70 3 0 35 -16 70 -36
35 -19 67 -33 71 -31 5 3 7 111 7 241 -1 130 2 239 7 242 5 2 48 -5 96 -16
181 -44 319 -15 424 89 82 82 104 154 96 316 -3 66 -9 134 -12 150 -51 280
-99 482 -120 505 -29 32 -109 65 -265 109 -80 22 -149 41 -153 41 -4 0 -7 -8
-8 -17z m360 -210 c106 -322 -10 -586 -291 -668 -87 -25 -140 -6 -280 102 -32
24 -58 52 -58 61 0 30 58 141 92 175 31 31 103 92 193 162 99 77 311 235 316
235 3 0 16 -30 28 -67z m-1294 -193 c198 -111 363 -205 368 -209 4 -4 -21 -35
-56 -70 -187 -183 -413 -270 -537 -206 -50 26 -134 114 -163 171 -48 96 -61
159 -61 304 -1 77 5 160 12 193 l14 58 31 -20 c18 -10 194 -110 392 -221z
m551 -422 c11 -24 42 -80 68 -125 61 -104 71 -175 35 -247 -41 -84 -42 -84
-157 -26 -225 115 -234 169 -62 353 45 48 85 87 89 87 4 0 16 -19 27 -42z"/>
</g>
</svg>
